<svg width="38" height="38" viewBox="0 0 38 38" fill="none" xmlns="http://www.w3.org/2000/svg">
<circle cx="18.9189" cy="18.9189" r="18.9189" fill="#1E293B"/>
<path d="M27.3062 14.842C26.74 15.0937 26.1423 15.251 25.5131 15.3453C26.1423 14.9678 26.6456 14.3701 26.8658 13.6466C26.2681 13.9926 25.6075 14.2443 24.884 14.4016C24.3177 13.8039 23.4998 13.4264 22.619 13.4264C20.9202 13.4264 19.5361 14.8105 19.5361 16.5093C19.5361 16.761 19.5675 16.9812 19.6305 17.2014C17.0824 17.0755 14.7859 15.8487 13.2445 13.9612C12.9928 14.4331 12.8355 14.9364 12.8355 15.5026C12.8355 16.5722 13.3703 17.5159 14.2197 18.0822C13.7163 18.0507 13.2445 17.9249 12.804 17.7047V17.7362C12.804 19.2461 13.8736 20.5045 15.2892 20.7876C15.0376 20.8505 14.7545 20.882 14.4713 20.882C14.2826 20.882 14.0624 20.8505 13.8736 20.8191C14.2826 22.0459 15.4151 22.9582 16.7678 22.9582C15.6982 23.7761 14.377 24.2794 12.9299 24.2794C12.6782 24.2794 12.4266 24.2794 12.2063 24.248C13.5905 25.1288 15.1949 25.6321 16.9565 25.6321C22.6504 25.6321 25.7648 20.9134 25.7648 16.8239C25.7648 16.698 25.7648 16.5407 25.7648 16.4149C26.3625 16.006 26.8973 15.4712 27.3062 14.842Z" fill="white"/>
</svg>
