<svg width="38" height="38" viewBox="0 0 38 38" fill="none" xmlns="http://www.w3.org/2000/svg">
<circle cx="18.9189" cy="18.9189" r="18.9189" fill="#1E293B"/>
<path d="M15.1315 26.1974V17.2926H12.1743V26.1974H15.1318H15.1315ZM13.6535 16.077C14.6845 16.077 15.3264 15.3932 15.3264 14.5387C15.3071 13.6647 14.6845 13 13.6731 13C12.661 13 12 13.6647 12 14.5386C12 15.3932 12.6416 16.0769 13.6341 16.0769H13.6533L13.6535 16.077ZM16.7683 26.1974H19.7253V21.2251C19.7253 20.9593 19.7446 20.6928 19.8227 20.503C20.0364 19.971 20.5229 19.4204 21.34 19.4204C22.4098 19.4204 22.838 20.2369 22.838 21.4341V26.1974H25.7949V21.0916C25.7949 18.3566 24.3362 17.0838 22.3907 17.0838C20.7956 17.0838 20.095 17.9762 19.7058 18.5839H19.7255V17.2929H16.7685C16.8071 18.1283 16.7682 26.1977 16.7682 26.1977L16.7683 26.1974Z" fill="white"/>
</svg>
