<svg width="38" height="38" viewBox="0 0 38 38" fill="none" xmlns="http://www.w3.org/2000/svg">
<circle cx="18.9189" cy="18.9189" r="18.9189" fill="#1E293B"/>
<path d="M18.9197 11.4151C21.3639 11.4151 21.6533 11.4243 22.6189 11.4683C23.1994 11.4754 23.7745 11.582 24.319 11.7835C24.7138 11.9358 25.0725 12.1691 25.3717 12.4683C25.671 12.7676 25.9043 13.1262 26.0565 13.5211C26.258 14.0656 26.3646 14.6406 26.3717 15.2212C26.4153 16.1867 26.4249 16.4762 26.4249 18.9204C26.4249 21.3646 26.4157 21.654 26.3717 22.6196C26.3646 23.2001 26.258 23.7752 26.0565 24.3197C25.9043 24.7146 25.671 25.0732 25.3717 25.3724C25.0725 25.6717 24.7138 25.905 24.319 26.0573C23.7745 26.2587 23.1994 26.3653 22.6189 26.3724C21.6538 26.416 21.3643 26.4256 18.9197 26.4256C16.475 26.4256 16.1856 26.4165 15.2205 26.3724C14.6399 26.3653 14.0649 26.2587 13.5204 26.0573C13.1255 25.905 12.7669 25.6717 12.4676 25.3724C12.1684 25.0732 11.9351 24.7146 11.7828 24.3197C11.5813 23.7752 11.4747 23.2001 11.4676 22.6196C11.424 21.654 11.4144 21.3646 11.4144 18.9204C11.4144 16.4762 11.4236 16.1867 11.4676 15.2212C11.4747 14.6406 11.5813 14.0656 11.7828 13.5211C11.9351 13.1262 12.1684 12.7676 12.4676 12.4683C12.7669 12.1691 13.1255 11.9358 13.5204 11.7835C14.0649 11.582 14.6399 11.4754 15.2205 11.4683C16.186 11.4247 16.4755 11.4151 18.9197 11.4151ZM18.9197 9.76562C16.4349 9.76562 16.1219 9.77609 15.1455 9.82055C14.3857 9.83566 13.634 9.97952 12.9223 10.246C12.3118 10.476 11.7588 10.8365 11.302 11.3022C10.8358 11.7592 10.475 12.3125 10.2449 12.9234C9.97838 13.6351 9.83452 14.3868 9.8194 15.1466C9.77581 16.1222 9.76535 16.4352 9.76535 18.9199C9.76535 21.4047 9.77581 21.7177 9.82028 22.6941C9.83539 23.4539 9.97925 24.2056 10.2457 24.9173C10.4756 25.5281 10.8361 26.0814 11.302 26.5385C11.7591 27.0044 12.3123 27.3648 12.9232 27.5947C13.6348 27.8612 14.3866 28.0051 15.1463 28.0202C16.1228 28.0638 16.4345 28.0751 18.9205 28.0751C21.4066 28.0751 21.7183 28.0647 22.6947 28.0202C23.4545 28.0051 24.2062 27.8612 24.9179 27.5947C25.5258 27.3591 26.0779 26.9992 26.5388 26.538C26.9997 26.0768 27.3592 25.5245 27.5945 24.9165C27.861 24.2048 28.0048 23.453 28.0199 22.6933C28.0635 21.7177 28.074 21.4047 28.074 18.9199C28.074 16.4352 28.0635 16.1222 28.0191 15.1457C28.0039 14.386 27.8601 13.6342 27.5936 12.9226C27.3637 12.3117 27.0032 11.7585 26.5374 11.3014C26.0803 10.8355 25.527 10.475 24.9162 10.2451C24.2045 9.97865 23.4528 9.83479 22.693 9.81968C21.7174 9.77609 21.4044 9.76562 18.9197 9.76562Z" fill="white"/>
<path d="M18.9221 14.2209C17.9923 14.2209 17.0834 14.4966 16.3103 15.0131C15.5373 15.5297 14.9347 16.2639 14.5789 17.1229C14.2231 17.9819 14.13 18.9271 14.3114 19.839C14.4928 20.7509 14.9405 21.5885 15.598 22.2459C16.2554 22.9034 17.0931 23.3511 18.0049 23.5325C18.9168 23.7139 19.8621 23.6208 20.721 23.265C21.58 22.9092 22.3142 22.3066 22.8308 21.5336C23.3473 20.7605 23.623 19.8516 23.623 18.9218C23.623 17.6751 23.1277 16.4794 22.2461 15.5978C21.3645 14.7162 20.1688 14.2209 18.9221 14.2209ZM18.9221 21.9733C18.3185 21.9733 17.7286 21.7943 17.2268 21.459C16.725 21.1237 16.3339 20.6472 16.1029 20.0896C15.8719 19.532 15.8115 18.9185 15.9293 18.3265C16.047 17.7346 16.3376 17.1909 16.7644 16.7642C17.1911 16.3374 17.7348 16.0468 18.3268 15.929C18.9187 15.8113 19.5322 15.8717 20.0898 16.1027C20.6474 16.3336 21.1239 16.7248 21.4592 17.2266C21.7945 17.7284 21.9735 18.3183 21.9735 18.9218C21.9735 19.7311 21.652 20.5073 21.0798 21.0795C20.5075 21.6518 19.7314 21.9733 18.9221 21.9733Z" fill="white"/>
<path d="M23.8074 15.1324C24.4141 15.1324 24.9059 14.6406 24.9059 14.0339C24.9059 13.4272 24.4141 12.9354 23.8074 12.9354C23.2007 12.9354 22.7089 13.4272 22.7089 14.0339C22.7089 14.6406 23.2007 15.1324 23.8074 15.1324Z" fill="white"/>
</svg>
